<?xml version="1.0" encoding="utf-8"?>
<!-- Generator: Adobe Illustrator 23.0.3, SVG Export Plug-In . SVG Version: 6.00 Build 0)  -->
<svg version="1.1" id="Layer_1" xmlns="http://www.w3.org/2000/svg" xmlns:xlink="http://www.w3.org/1999/xlink" x="0px" y="0px"
	 viewBox="0 0 400 60" style="enable-background:new 0 0 400 60;" xml:space="preserve">
<style type="text/css">
	.st0{fill:#EB008B;}
	.st1{fill:#008996;}
</style>
<g>
	<path class="st0" d="M374.8,12.2c0,0.6-4.9,4.6-6,4.6c-0.6,0-2.1-0.8-2.2-1c0.8,0.1,4.6-5.1,4.5-5.8
		C372.4,10.1,374.7,11.1,374.8,12.2"/>
	<path class="st0" d="M298.2,15.7c1.5,0,3.5-2.5,3.6-3.8c0.1-1.1-1.9-1.8-3-1.8c-1.7,0-2.4,1.9-2.5,3.2
		C296.2,14.9,297.3,15.7,298.2,15.7"/>
	<path class="st1" d="M25.9,17.4l-5.4,0l0.9-2.7c0.6-2.3,1.5-3.7,4-4.2c3-0.2,4.7,0.3,6.1,3.8l0.2,0.4l4.4-2.1l-0.2-0.4
		c-1.8-3.4-4-6.4-9.8-6.4h0c-4.4,0-8.2,3.3-9.8,8.4l-1,3.2l-10.2,0l-1.1,5l10.2,0L8.6,42.7l5.4,0l5.4-20.4l5.4,0L25.9,17.4z"/>
	<path class="st1" d="M37.2,17.2L37.2,17.2c-3.8,0-7.1,1.7-9.6,4.9l-0.3,0.4l4.1,2.2l0.2-0.3c1.4-1.7,3-2.6,4.8-2.6h0
		c1.2,0,2,0.3,2.5,0.8c0.4,0.5,0.6,1.3,0.5,2.4c-4.5,0.2-8,0.9-10.3,2.1c-2.7,1.3-4.3,3.4-4.9,6.2c-0.4,1.9,0,3.4,1.2,4.5
		c1.1,1.1,2.7,1.6,4.7,1.6h0c2.4,0,4.8-0.9,7.2-2.6c0,0.7,0.1,1.3,0.2,1.9l0.1,0.3l4.8,0l-0.1-0.5c-0.2-0.9-0.2-2,0-3.1l1.9-8.8
		c0.6-2.9,0.4-5.2-0.7-6.8C42.2,18.1,40.1,17.2,37.2,17.2 M35.4,33.2c-1.4,1-3,1.5-4.6,1.5h0c-0.7,0-1.3-0.2-1.6-0.5
		c-0.2-0.2-0.2-0.5-0.2-0.8c0.5-2.4,3.6-3.7,9.3-3.9C37.6,31.1,36.7,32.3,35.4,33.2"/>
	<path class="st1" d="M59.9,22.4l1-4.8h-0.5h0c-1.7,0-3.1,0.2-4.2,0.5c-1,0.3-1.9,0.8-2.8,1.5l0.4-1.9l-4.9,0l-4.6,21.4l4.9,0
		l2.3-10.8c0.8-3.8,3.5-5.7,8.1-5.9L59.9,22.4z"/>
	<path class="st1" d="M85.9,17.2L85.9,17.2c-2.3,0-4.7,1-7.2,3.1c-1-2.1-2.9-3.1-5.5-3.1h0c-1.5,0-3.3,0.6-5.2,1.7l0.3-1.5l-4.9,0
		l-4.6,21.6l4.9,0l3.1-14.4c0.7-0.8,1.6-1.5,2.7-2c1.1-0.6,2.1-0.9,2.9-0.9h0c0.7,0,1.2,0.2,1.5,0.6c0.5,0.6,0.6,1.8,0.2,3.6
		l-2.8,13.1l4.9,0L79,26.2c0.1-0.3,0.1-0.7,0.2-1.3c0.7-0.8,1.7-1.5,2.8-2.1c1.2-0.6,2.2-0.9,3.1-0.9h0c0.9,0,1.5,0.3,1.8,0.8
		c0.2,0.4,0.4,1.3,0,3.2L84,39.1l4.9,0l2.8-12.9c0.5-2.5,0.4-4.6-0.3-6.1C90.4,18.2,88.6,17.2,85.9,17.2"/>
	<path class="st1" d="M105.5,17.3L105.5,17.3c-3.8,0-7.1,1.7-9.6,4.9l-0.3,0.4l4.1,2.2l0.2-0.3c1.4-1.7,3-2.6,4.8-2.6
		c1.2,0,2,0.3,2.5,0.8c0.4,0.5,0.6,1.3,0.5,2.4c-4.5,0.2-8,0.9-10.3,2.1c-2.7,1.3-4.3,3.4-4.9,6.2c-0.4,1.9,0,3.4,1.2,4.5
		c1.1,1.1,2.7,1.6,4.7,1.6h0c2.4,0,4.8-0.9,7.2-2.6c0,0.7,0.1,1.3,0.2,1.9l0.1,0.3l4.8,0l-0.1-0.5c-0.2-0.9-0.2-2,0-3.1l1.9-8.8
		c0.6-2.9,0.4-5.2-0.7-6.8C110.5,18.1,108.4,17.3,105.5,17.3 M103.7,33.3c-1.4,1-3,1.5-4.6,1.5h0c-0.7,0-1.3-0.2-1.6-0.5
		c-0.2-0.2-0.2-0.5-0.2-0.8c0.5-2.4,3.6-3.7,9.3-3.9C106,31.2,105,32.4,103.7,33.3"/>
	<path class="st1" d="M128.6,30.7c-1.8,2.8-3.8,4.2-5.8,4.2h0c-1.1,0-2-0.5-2.7-1.6c-0.8-1.2-1-2.8-0.5-4.8c0.4-2.1,1.4-3.8,2.7-5
		c1.2-1.1,2.4-1.6,3.6-1.6h0c2,0,3.2,1,3.9,3.1l0.1,0.4l4.7-2l-0.1-0.4c-1.2-3.9-3.9-5.8-7.8-5.8h0c-2.8,0-5.3,1.1-7.6,3.1
		c-2.3,2.1-3.8,4.8-4.5,8c-0.7,3.2-0.3,5.8,1.1,7.9c1.4,2.1,3.5,3.2,6.3,3.2h0c4,0,7.6-2.3,10.5-6.8l0.3-0.4l-4-2L128.6,30.7z"/>
	<path class="st1" d="M141.4,15.9L141.4,15.9c1.3,0,2.4-1,2.7-2.2l0.1-0.3c0.2-0.8,0-1.5-0.5-2.1c-0.5-0.6-1.1-0.9-1.9-0.9h0
		c-1.3,0-2.4,1-2.7,2.2l-0.1,0.3c-0.2,0.8,0,1.5,0.5,2.1C140,15.6,140.7,15.9,141.4,15.9"/>
	<polygon class="st1" points="138.2,17.8 133.6,39.2 139,39.2 143.1,17.8 	"/>
	<path class="st1" d="M155.8,17.3L155.8,17.3c-3.8,0-7.1,1.7-9.6,4.9l-0.3,0.4l4.1,2.2l0.2-0.3c1.4-1.7,3-2.6,4.8-2.6h0
		c1.2,0,2,0.3,2.5,0.8c0.4,0.5,0.6,1.3,0.5,2.4c-4.5,0.2-8,0.9-10.3,2.1c-2.7,1.3-4.3,3.4-4.9,6.2c-0.4,1.9,0,3.4,1.2,4.5
		c1.1,1.1,2.7,1.6,4.7,1.6h0c2.4,0,4.8-0.9,7.2-2.6c0,0.7,0.1,1.3,0.2,1.9l0.1,0.3l4.8,0l-0.1-0.5c-0.2-0.9-0.2-2,0-3.1l1.9-8.8
		c0.6-2.9,0.4-5.2-0.7-6.8C160.8,18.2,158.7,17.3,155.8,17.3 M154,33.3c-1.4,1-3,1.5-4.6,1.5h0c-0.8,0-1.3-0.2-1.6-0.5
		c-0.2-0.2-0.2-0.5-0.2-0.8c0.5-2.4,3.6-3.7,9.3-3.9C156.2,31.2,155.2,32.4,154,33.3"/>
	<path class="st1" d="M180.2,27.7c-1.1-0.8-2.8-1.4-5.2-1.9c-4.2-1-4.1-1.7-4.1-1.7c0.3-1.4,1.5-2,3.7-2h0c2,0,3.4,0.8,4.3,2.5
		l0.2,0.4l4.9-2l-0.2-0.4c-1.5-3.4-4.3-5.2-8.3-5.2h0c-2,0-3.9,0.4-5.5,1.3c-2.1,1.1-3.4,2.9-3.9,5.3c-0.7,3,1.6,5.3,6.8,6.6
		c4.2,1.1,4.4,2,4.4,2.4c-0.1,0.4-0.4,0.8-1,1.2c-0.8,0.6-1.9,0.9-3.2,0.9h0c-2.1,0-3.6-1-4.4-3l-0.2-0.4l-5.1,2l0.2,0.4
		c1.6,3.7,4.5,5.6,8.7,5.7h0c2.4,0,4.5-0.6,6.4-1.8c1.9-1.3,3.1-2.9,3.5-4.8C182.6,30.7,182,28.9,180.2,27.7"/>
	<path class="st0" d="M393.8,33.5c-1.5,0-2.7,1.2-2.7,2.7c0,1.5,1.2,2.7,2.7,2.7c1.5,0,2.7-1.2,2.7-2.7
		C396.5,34.7,395.3,33.5,393.8,33.5 M395.9,36.2c0,1.2-0.9,2.1-2.1,2.1s-2.1-0.9-2.1-2.1c0-1.2,0.9-2.1,2.1-2.1
		S395.9,35.1,395.9,36.2"/>
	<path class="st0" d="M394.8,35.7c0-0.5-0.4-1.1-1.4-1.1h-0.5v3h0.6v-0.9c0,0,0.1,0,0.1,0l0.8,1l0.5-0.4l-0.6-0.8
		C394.6,36.3,394.8,36,394.8,35.7 M394.2,35.7c0,0.2-0.2,0.4-0.7,0.4v-0.8C394,35.3,394.2,35.5,394.2,35.7"/>
	<path class="st0" d="M201.6,19c0.2-2.5,5.6-8.3,10.7-10c0.5-0.2,1,0.1,1.1,0.7c0.1,0.9,0.2,1.8,0.1,2.7c-0.2,2.4-1.5,5.4-2.5,6
		c0.1,0.5,0.6,1.2,1.4,1.2c2.3,0,5.7-5.3,6-8.3c0.1-0.7-0.1-1.3-0.4-1.8l0,0c0,0,0,0,0,0c-0.3-0.4-0.6-0.8-1.1-1.1
		c-0.9-0.8-2.6-1.8-5.4-2.4c-0.1,0-0.2,0-0.3-0.1c-0.2,0-0.3-0.1-0.5-0.1l0,0c-0.2,0-0.3,0-0.5,0c-4.9,0-13.3,7.4-13.8,13
		c-0.7,7.9,13.5,14,13.1,18.6c-0.3,3.1-10.7,7.3-16.4,7.3c-1.1,0-1.7-0.3-1.7-0.9c0.1-1.4,4-3.5,4-3.5c0-0.3-0.4-0.5-0.8-0.5
		c-1.6,0-5.7,2-5.9,4.3c0,0.1,0,0.2,0,0.3l0,0c0,0,0,0.1,0,0.1c0,0.1,0,0.2,0.1,0.3c0.1,0.6,0.5,1.8,2,3.4c0.1,0.2,0.3,0.3,0.5,0.5
		c0,0,0,0,0,0l0,0c0.7,0.5,1.8,0.8,3.9,0.8c4.7,0,19-4.5,19.4-11C215.1,28.2,201.2,23.9,201.6,19"/>
	<path class="st0" d="M387.6,24.4c-0.4,0.5-0.1,1.2,0.5,1.2c0,0,0,0,0,0c1.6-0.1,3.4-1.3,3.7-4.8c0-1-0.4-1.6-1.1-2.2h0
		c0,0,0,0-0.1,0c0,0,0,0-0.1,0c-0.3-0.2-0.5-0.4-0.9-0.5c-0.6-0.2-1.4-0.5-2.6-0.7c-2.5-0.3-7.3,0.9-9.3,3.1
		c-1.1,1.2-1.7,2.3-1.6,3.4c0.2,2.4,2.7,4.2,5.3,5.5c1.3,0.7,2.4,1.2,2.9,2.2c0.4,1.2-0.1,2.8-2.3,3.8c-3.4,1.5-6.9-1.6-7.2-3.2
		c0,0,0,0,0,0c-0.1-0.3-0.9-0.6-1.2-0.6h-0.2c0,0-0.9,4-3.2,4c-0.5,0-1.8,0.2-1.5-1.8c0.5-3.3,2.6-10.3,3.5-12.3
		c0.1-0.3,0.1-0.6-0.2-0.9c-1.1-1-3.1-1.6-3.9-1c-0.1,0.1-0.2,0-0.3,0.1c-1.6-1.3-4-2.2-5.2-2.2c-3.9,0-6.9,4.8-8.4,9.8
		c-1.4,3-4.7,9-7.5,9c-1.7,0-2.1-2.7-1.8-6.1c4.8-3.9,10.2-15.7,10.6-20.1c0.2-2,0-3.5-0.5-4.2h0c0,0,0,0,0,0c0,0-0.1-0.1-0.1-0.1
		c-1.7-2.1-4-1.1-5.3-0.2c-4,2.2-9.2,15.8-9.8,24.2c-1.3,0.6-2.7,1-4.3,1.1c-0.2,0-0.3-0.2-0.3-0.4c0.4-1.3,1-3.1,1.1-4.2
		c0.2-2.8-0.3-5.2-1.7-6.3c-0.7-0.6-3.9-2.6-6.4-2.5c0,0-2.1-0.2-5.1,3.6c-0.3,0.3-0.5,0.6-0.8,1c0,0,0,0,0,0
		c-0.8,1.2-1.5,2.8-2.1,4.6c-1.7,3.8-4.4,8.7-8.3,9.5c-2.4,0.5-5.5,0.2-5-4.8c0.5-4.9,3.9-10.9,6.1-11.4c0.5-0.1,0.7,1.1,0.7,1.7
		c-0.2,1.9-1.2,4-2.1,5c-0.5,0.6-0.2,1.6,0.6,1.6c0,0,0,0,0,0c2.1,0,4.6-2.5,5-6.8c0-1.3-0.4-2.1-1.2-2.8l0,0c0,0,0,0-0.1-0.1
		c0,0-0.1,0-0.1-0.1c-1.9-1.5-5.2-0.7-6.2-0.4c-0.1,0-0.1,0-0.2,0.1c-0.1,0-0.1,0-0.1,0l0,0c-2.8,1.1-5.8,5-7.1,9.3
		c-1.3,3.3-4.3,10-6.2,8.2c-0.9-0.9-0.4-4.2-0.1-5.7c0.4-3.1,2.2-7.9,3.1-10.3c0.2-0.5,0-1-0.5-1.2c-1.2-0.6-2.9-1-3.6-1
		c-0.8,0-1.5,1.4-2.2,3.1c-1.1,3.1-2.9,9.3-2.7,14.1c0.1,1.9,1,3.9,3.2,4.3c0,0,0,0,0,0c0,0,0,0,0,0c0.5,0.1,1,0,1.4,0
		c2.8-0.3,5.2-3.1,6.8-6c0.4,5.2,4.3,6.8,8.6,6.2c4.2-0.5,7.3-3.8,9.3-7c0.3,3.6,2.3,7.2,7.1,7.1c3.6-0.1,6.1-2.2,7.7-5.7
		c0-0.1,0.1-0.2,0.2-0.2c1.9-0.1,3.7-0.5,5.4-1.2c0,0.1,0,0.2,0,0.4c0.3,3.5,2.7,6.7,5.5,6.7c3.2,0,5.8-2.7,7.6-5.7
		c0,0.2,0,0.3,0,0.5c0.1,4.2,3.2,5.1,5.1,5.1c1.8,0,4.1-2.1,5.5-5.7c0,0.1,0,0.3,0,0.4c0.4,4.1,2.5,5.7,5.7,5.3
		c1.5-0.2,3-1.3,4.3-3.3c0.2-0.3,0.3-0.6,0.5-0.8c1.3,1.7,5.1,5.3,10.2,3.9c4.5-1.2,5.1-4.4,5.1-6c0-3.5-3.6-5.7-6.4-7
		c-1.6-0.7-2-1.5-2-1.9c0.1-1.5,2.2-2.9,4.4-3.4c0.5-0.1,2.3-0.5,2.8,0.1c0.1,0.1,0.2,0.2,0.2,0.9C388.5,23,388.2,23.6,387.6,24.4
		 M330,32.5c-1.2,2.5-2.8,4.8-4.2,4.9c-1.4,0-1.9-1.5-1.8-3.8c0.1-1.1,0.4-3,0.8-4.4c0.1-0.2,0.3-0.3,0.5-0.1c1.2,1.4,2.7,2.4,4.5,3
		C330,32.2,330.1,32.4,330,32.5 M332.4,23.5c0,0.1,0,0.1,0,0.2c0,0.1,0,0.2,0,0.3c-0.1,1.7-0.6,3.7-1.2,5.6
		c-0.1,0.2-0.2,0.2-0.4,0.2c-1.6-0.7-2.9-2.1-3.8-4c0-0.1,0-0.2,0-0.3c0.8-1.6,1.8-2.9,2.7-3.3c0,0,0.1-0.1,0.1-0.1
		c0.9-0.5,2.6-1.1,2.6,1.2C332.4,23.4,332.4,23.4,332.4,23.5 M352.9,8.3c1.9-0.1-2,11.8-7.3,18.6C347.3,18.7,351.6,8.3,352.9,8.3
		 M365.8,24.9c-1.7,4.3-5.3,11.8-6.8,11.8c-2.3,0,1.9-16,5.6-16c0.8,0,1.5,1.1,1.6,3C366,24,365.9,24.4,365.8,24.9"/>
	<path class="st0" d="M251.7,17.6c-1.1,0.4-5.4,5.7-8.1,11.1c0.8-2.7,1.9-5.3,2.6-6.8c0.2-0.5,0.1-1.1-0.3-1.4
		c-1.8-1.7-3.5-1.6-4.1-1.1c-0.5,0.4-1.8,4.1-2.8,7.9c-1.3,2.8-4,8.3-5.7,8.3c-0.5,0-1.8,0.2-1.5-1.8c0.5-3.3,2.6-10.3,3.5-12.3
		c0.1-0.3,0.1-0.6-0.2-0.9c-1.1-1-3.1-1.6-3.9-1c-0.1,0.1-0.2,0-0.3,0.1c-1.6-1.3-4-2.2-5.2-2.2c-5.9,0-9.7,11.1-9.6,16.7
		c0.1,4.2,3.2,5.1,5.1,5.1c2.6,0,4.1-2.1,5.5-5.7c0,0.1,0,0.3,0,0.4c0.4,4.1,2.4,5.7,5.5,5.3c2-0.3,3.9-2.6,5.4-5.1
		c0,0.2,0,0.4,0,0.5c0.1,2.4,1.9,4.7,4.5,4.7c1.1-7.3,5.5-13.9,7.4-16.5c1-1.2,1.6-1.1,1.2,0.1c-1,2.9-3.1,8.4-3,12.1
		c0,0.2,0,0.3,0,0.5c0,1,0,1.8,0.1,2.6c0.8,5,3.8,5.5,4.7,5.6c3.7,0.4,5.2-5,4.1-5.1c0,0-0.8,0.8-1.9,1.5c-0.1,0.1-0.3,0.1-0.5,0.1
		c-0.4,0-0.6-0.1-1-0.4c-0.4-0.3-0.6-0.8-0.7-1.3c-0.1-0.4-0.1-0.8-0.1-1.1c0.1-0.8,0.3-1.8,0.6-2.8c0,0,0,0,0,0
		c1.2-5.1,3.6-11.8,4.2-12.9C258.3,19.9,255.1,16.4,251.7,17.6 M228.6,24.7c-1.7,4.3-5.1,12-6.7,12c-2.3,0,1.9-16,5.6-16
		c0.8,0,1.3,0.9,1.5,2.8C228.8,23.8,228.7,24.2,228.6,24.7"/>
	<path class="st0" d="M292.4,10.4c-0.4-3.5-4.1-4.2-6.9-4.2c-3.2,0-6.3,3-8.6,6.1c0.3-1.6,0.4-4.3-0.8-5.5c-0.3-0.2-0.5-0.4-0.7-0.5
		c0,0,0,0,0,0c0,0-0.1,0-0.1,0c-0.1,0-0.2-0.1-0.2-0.1c-0.2-0.1-0.5-0.2-0.7-0.2l0,0c-0.5-0.1-0.9-0.1-1.4-0.1
		c-0.6,0-1.3,0.1-2.3,0.6c-1.1,0.6-2.2,2-1.9,3.2c0.1,0.3,0.2,0.4,0.3,0.6c0.1,0.1,0.2,0.1,0.4,0c0.1-0.1,2.5-2.4,3.2-1.7
		c0.1,0,0.1,0.2,0.1,0.6c-2.5,7.3-6.3,24.7-6.4,30.1c0,1.2,1.5,3.5,4.2,3.7c0,0,2.1-12.3,4.7-22.9c2.5-4.8,7.9-10.3,9.8-9.9
		c0.4,0.1,0.9,1.3,0.6,2.5c-4.2,17.9-7.2,30.2-5.4,36.3c1.5,5.2,4.8,5.5,5.8,5.5c4,0,5-6,3.8-5.9c0,0-0.7,1-1.8,1.8
		c-0.1,0.1-0.3,0.2-0.5,0.2c-0.5,0.1-0.7,0-1.1-0.3c-0.5-0.3-0.8-0.8-0.9-1.3c-0.1-0.4-0.2-0.8-0.2-1.2c-0.2-11.1,2.1-16.9,7-36.6
		C292.4,10.9,292.5,10.7,292.4,10.4"/>
</g>
</svg>
